<svg width="160" height="41" viewBox="0 0 160 41" fill="none" xmlns="http://www.w3.org/2000/svg">
<path d="M0 0.5H56.8901V7.64286H29.759V17.3571H54.776V24.5H29.759V40.5H0V0.5Z" fill="white"/>
<path d="M64.4156 13.4143H73.4358V40.5H64.4156V13.4143ZM64.1337 9.35714V1.64286H73.7881V9.35714H64.1337Z" fill="white"/>
<path d="M82.0332 40.5V0.5H91.0534V40.5H82.0332Z" fill="white"/>
<path d="M99.6508 13.4143H108.671V16.7286C110.362 14.1571 113.111 12.8429 116.916 12.8429C120.933 12.8429 124.174 14.5571 125.584 17.9286C127.557 14.5 131.01 12.8429 135.238 12.8429C142.074 12.8429 146.373 16.2714 146.373 22.2143V40.5H137.352V23.5857C137.352 20.6143 135.309 18.9 132.419 18.9C129.389 18.9 127.487 20.7286 127.487 23.8714V40.5H118.537V23.5857C118.537 20.6714 116.493 19.0714 113.604 19.0714C110.715 19.0714 108.671 20.9 108.671 24.1571V40.5H99.6508V13.4143Z" fill="white"/>
<path d="M155.545 29.0714V0.5H159.295V29.0714H155.545ZM154.84 40.5V32.5H160V40.5H154.84Z" fill="white"/>
</svg>
